
		<svg xmlns="http://www.w3.org/2000/svg" xmlns:xlink="http://www.w3.org/1999/xlink" version="1.1" width="3063.4249103167613" height="2936.5733476660484">
			
			<g transform="scale(3.1712455158380655) translate(10, 10)">
				<defs id="SvgjsDefs4215"/><g id="SvgjsG4216" featureKey="root" fill="#fff" transform="matrix(1,0,0,1,0,0)"/><g id="SvgjsG4217" featureKey="container1" fill="#fff" transform="matrix(17.05646000841695,0,0,17.05646000841695,50.170210645225595,30)">  <title xmlns="http://www.w3.org/2000/svg">assets</title>  <rect xmlns="http://www.w3.org/2000/svg" x="272.93" y="794.34" width="3.85" height="3.85" transform="translate(-343.88 804.08) rotate(-135)"/>  <rect xmlns="http://www.w3.org/2000/svg" x="294.81" y="772.45" width="3.85" height="3.85" transform="translate(804.07 362.54) rotate(135)"/>  <rect xmlns="http://www.w3.org/2000/svg" x="272.93" y="750.57" width="3.85" height="3.85" transform="translate(362.54 -723.53) rotate(45)"/>  <rect xmlns="http://www.w3.org/2000/svg" x="251.05" y="772.45" width="3.85" height="3.85" transform="translate(-723.53 -343.89) rotate(-45)"/>  <path xmlns="http://www.w3.org/2000/svg" d="M274.85,796.62a22.24,22.24,0,1,1,22.24-22.24A22.27,22.27,0,0,1,274.85,796.62Zm0-44.1a21.86,21.86,0,1,0,21.86,21.86A21.88,21.88,0,0,0,274.85,752.52Z" transform="translate(-250.06 -749.58)"/>  <path xmlns="http://www.w3.org/2000/svg" d="M274.85,799.18a24.8,24.8,0,1,1,24.8-24.8A24.83,24.83,0,0,1,274.85,799.18Zm0-49.21a24.41,24.41,0,1,0,24.41,24.41A24.44,24.44,0,0,0,274.85,750Z" transform="translate(-250.06 -749.58)"/></g><g id="SvgjsG4218" featureKey="symbol1" fill="#fff" transform="matrix(5.803571033234526,0,0,5.803571033234526,212,201)"><g><path d="M53.7,11.1c-4.9,3.2-6.6,33.7-6.6,33.7s8.3-20.9,10.2-23.5s28.2-10.2,28.2-10.2L90,0C90,0,58.6,7.9,53.7,11.1z"/><path d="M58.3,21.8c-0.4,0.5-1.1,2.4-1.7,3.8c0.1-0.1,0.1-0.2,0.2-0.4c-0.1,0.1-0.1,0.2-0.2,0.4c11-0.2,17.6-2,19-3 c1.4-1,4.6-8.7,4.6-8.7C73.8,15.8,59.6,20.2,58.3,21.8z"/><path d="M56.6,25.6c0.1-0.1,0.1-0.2,0.2-0.4"/><path d="M56.1,26.7c-0.9,2.1-2.1,4.7-3.1,7.2c5.6,0.1,14.3-1,15.7-1.4s2.8-7.4,2.8-7.4l0,0C68,25.9,62.8,26.6,56.1,26.7z"/><path d="M52.7,35c-1.8,3.9-4.8,9.8-4.8,9.8c3-2.7,9.8-3.6,11.4-4.3c2.9-1.2,4.7-6.2,4.7-6.2s-2.6,0.5-6.3,0.6 C54.1,35.1,52.7,35,52.7,35z"/><path d="M36.3,11.1C31.4,7.9,0,0,0,0l4.5,11.1c0,0,26.3,7.7,28.2,10.2c1.9,2.6,10.2,23.5,10.2,23.5S41.2,14.3,36.3,11.1z"/><path d="M33.2,25.3c0.1,0.1,0.1,0.2,0.2,0.4c-0.5-1.4-1.3-3.3-1.7-3.8c-1.3-1.7-15.5-6-21.9-7.9c0,0,3.1,7.7,4.6,8.7 c1.4,1,8.1,2.8,19,3C33.4,25.5,33.3,25.4,33.2,25.3z"/><path d="M33.4,25.6c-0.1-0.1-0.1-0.2-0.2-0.4"/><path d="M37,33.9c-1.1-2.5-2.2-5.1-3.1-7.2c-6.7-0.1-11.9-0.8-15.3-1.6h0c0,0,1.3,6.9,2.8,7.4C22.7,32.9,31.5,34,37,33.9z"/><path d="M32.3,34.9c-3.6-0.1-6.3-0.6-6.3-0.6s1.8,4.9,4.7,6.2c1.6,0.7,8.4,1.6,11.4,4.3c0,0-3-5.9-4.8-9.8 C37.3,35,35.9,35.1,32.3,34.9z"/></g></g><g id="SvgjsG4219" featureKey="text1" fill="#fff" transform="matrix(9.2770804735792,0,0,9.2770804735792,302.9494178226388,428.7857885961871)"><path d="M17.16 10.06 q-0.8 0.52 -2.25 3.36 t-2.58 5.93 t-1.13 4.29 q0 0.26 0.04 0.36 l-1.26 0 q-0.06 -1.16 -0.41 -2.03 t-0.53 -1.3 t-0.62 -1.43 t-0.78 -1.8 q-1.04 -2.42 -1.18 -4.12 q-1.32 2.94 -2.6 6.22 t-1.28 4.28 q0 0.14 0.02 0.18 l-1.84 0 q1.14 -2.92 3.26 -7.7 t2.58 -5.68 q-1.82 0 -3.55 0.72 t-2.03 1.68 q-0.02 0.06 -0.08 0.06 q-0.16 0 -0.16 -0.26 q0 -0.04 0.16 -0.54 t0.61 -1.04 t1.05 -0.8 q0.98 -0.4 2.42 -0.4 l3.38 0 q-0.28 0.46 -0.28 1.12 q0 1.48 1.14 4.16 q1.04 2.5 1.23 3.19 t0.24 0.91 t0.07 0.52 t0.04 0.38 q0.26 -0.64 4.46 -10.28 q0.04 -0.1 0.37 -0.1 t0.87 0.06 t0.62 0.06 z M21.520000000000003 18.8 q0.12 0 0.12 0.39 t-0.32 0.93 t-0.63 1.02 t-0.83 1.12 t-1.02 1.02 q-1.26 0.92 -2.53 0.92 t-2.05 -0.65 t-0.78 -1.99 q0 -2.04 1.5 -3.78 t3.5 -1.74 q0.9 0 1.44 0.47 t0.54 1.13 q0 1.12 -1.06 1.8 t-2.5 0.68 q-0.84 0 -1.24 -0.22 q-0.38 1.02 -0.38 1.8 q0 1.68 1.42 1.68 q0.84 0 1.73 -0.65 t1.52 -1.46 t1.43 -2.33 q0.08 -0.14 0.14 -0.14 z M19.4 17.22 q0 -0.58 -0.56 -0.58 q-0.78 0 -1.74 0.96 t-0.96 1.56 q0 0.4 0.76 0.4 t1.59 -0.74 t0.91 -1.6 z M22.5 17.9 q-1.08 2.14 -1.26 2.32 q-0.1 0 -0.1 -0.4 t0.08 -0.56 q0.32 -0.58 0.63 -1.49 t0.55 -1.33 t0.6 -0.42 l1.04 0 q0.24 1.34 0.8 3.1 q0.5 -0.5 1.39 -1.53 t1.21 -1.39 q0.18 -0.2 0.6 -0.2 t0.63 0.01 t0.25 0.01 q-1.6 1.42 -3.92 3.84 q0.68 2.2 1.24 2.74 q0.28 0.26 0.58 0.26 q0.8 0 2.1 -1.62 q0.2 -0.24 0.56 -0.84 q0.96 -1.56 1 -1.56 q0.1 0 0.1 0.38 t-0.22 0.76 q-0.84 1.44 -1.46 2.18 t-1.45 1.38 t-1.61 0.64 t-1.32 -0.68 t-0.94 -2.08 q-1.68 1.68 -2.4 2.58 l-1.48 0 q1.44 -1.3 3.6 -3.42 q-0.48 -1.32 -0.8 -2.68 z M35.84 12.54 q-0.98 0.68 -2.2 3.48 l2.02 0 l0.02 0.02 q0 0.1 -0.22 0.35 t-0.38 0.25 l-1.72 0 q-1.58 3.92 -1.58 5.04 q0 0.76 0.48 0.76 q0.7 0 1.64 -1.2 q0.22 -0.26 0.58 -0.88 q0.92 -1.48 0.96 -1.48 q0.12 0 0.12 0.32 q-0.02 0.76 -1.66 2.96 q-0.54 0.72 -1.3 1.34 t-1.38 0.62 q-1.14 0 -1.14 -1.6 q0 -1.34 0.64 -3.08 l0 -0.02 q-0.38 0.7 -0.65 1.04 t-0.31 0.34 q-0.08 0 -0.08 -0.25 t0.27 -0.81 t0.74 -1.46 t0.77 -1.64 l-1.34 0 q-0.06 0 -0.06 -0.09 t0.15 -0.31 t0.23 -0.22 l1.52 0 q1.44 -3.46 2.92 -3.46 q0.86 0 0.96 -0.02 z"/></g><g id="SvgjsG4220" featureKey="text3" fill="#fff" transform="matrix(3.0478955597878024,0,0,3.0478955597878024,272.25689515887086,668.188681768079)"><path d="M10.08 15.8 l2.46 0.68 c-0.44 2.08 -2.1 3.8 -5.34 3.8 c-4.36 0 -6.3 -3.04 -6.3 -7 c0 -4.26 2.3 -6.78 6.32 -6.78 c3.32 0 5.28 1.68 5.14 4.02 l-2.64 0.58 c-0.06 -1.5 -0.76 -2.36 -2.54 -2.36 c-2.4 0 -3.4 1.52 -3.4 4.56 c0 3.18 1.18 4.74 3.36 4.74 c1.34 0 2.78 -0.58 2.94 -2.24 z M13.24 20 l5.02 -13.22 l2.12 0 l5.34 13.22 l-2.8 0 l-1.14 -2.88 l-4.86 0 l-1.06 2.88 l-2.62 0 z M18.72 12.219999999999999 l-0.98 2.64 l3.14 0 l-1.04 -2.66 c-0.16 -0.36 -0.38 -1.08 -0.58 -1.78 c-0.2 0.74 -0.42 1.46 -0.54 1.8 z M27.26 20 l0 -13.22 l4.18 0 c3.8 0 5.16 1.68 5.16 4.48 c0 2.56 -1.56 4.36 -5.44 4.36 l-1.2 0 l0 4.38 l-2.7 0 z M31.32 9.06 l-1.36 0 l0 4.28 l1.18 0 c1.8 0 2.62 -0.64 2.62 -2.08 c0 -1.58 -0.74 -2.2 -2.44 -2.2 z M38.86 20 l0 -13.22 l2.7 0 l0 13.22 l-2.7 0 z M43.459999999999994 9.12 l0 -2.34 l11.1 0 l0 2.34 l-4.2 0 l0 10.88 l-2.7 0 l0 -10.88 l-4.2 0 z M54.96 20 l5.02 -13.22 l2.12 0 l5.34 13.22 l-2.8 0 l-1.14 -2.88 l-4.86 0 l-1.06 2.88 l-2.62 0 z M60.44 12.219999999999999 l-0.98 2.64 l3.14 0 l-1.04 -2.66 c-0.16 -0.36 -0.38 -1.08 -0.58 -1.78 c-0.2 0.74 -0.42 1.46 -0.54 1.8 z M68.97999999999999 20 l0 -13.22 l2.7 0 l0 10.9 l5.56 0 l0 2.32 l-8.26 0 z  M82.14 9.12 l0 -2.34 l11.1 0 l0 2.34 l-4.2 0 l0 10.88 l-2.7 0 l0 -10.88 l-4.2 0 z M95.14 20 l0 -13.22 l8.48 0 l0 2.32 l-5.78 0 l0 3.08 l4.72 0 l0 2.32 l-4.72 0 l0 3.18 l5.9 0 l0 2.32 l-8.6 0 z M114.74000000000001 15.8 l2.46 0.68 c-0.44 2.08 -2.1 3.8 -5.34 3.8 c-4.36 0 -6.3 -3.04 -6.3 -7 c0 -4.26 2.3 -6.78 6.32 -6.78 c3.32 0 5.28 1.68 5.14 4.02 l-2.64 0.58 c-0.06 -1.5 -0.76 -2.36 -2.54 -2.36 c-2.4 0 -3.4 1.52 -3.4 4.56 c0 3.18 1.18 4.74 3.36 4.74 c1.34 0 2.78 -0.58 2.94 -2.24 z M119.4 20 l0 -13.22 l2.7 0 l0 5.38 l6.16 0 l0 -5.38 l2.7 0 l0 13.22 l-2.7 0 l0 -5.5 l-6.16 0 l0 5.5 l-2.7 0 z"/></g>
			</g>
		</svg>
	